<?xml version="1.0" encoding="UTF-8" standalone="no"?>
<!-- Generator: Adobe Illustrator 23.0.6, SVG Export Plug-In . SVG Version: 6.00 Build 0)  -->

<svg
   xmlns:dc="http://purl.org/dc/elements/1.1/"
   xmlns:cc="http://creativecommons.org/ns#"
   xmlns:rdf="http://www.w3.org/1999/02/22-rdf-syntax-ns#"
   xmlns:svg="http://www.w3.org/2000/svg"
   xmlns="http://www.w3.org/2000/svg"
   xmlns:sodipodi="http://sodipodi.sourceforge.net/DTD/sodipodi-0.dtd"
   xmlns:inkscape="http://www.inkscape.org/namespaces/inkscape"
   version="1.1"
   id="Layer_1"
   x="0px"
   y="0px"
   viewBox="0 0 63 30"
   xml:space="preserve"
   sodipodi:docname="logo-ai2-fullColor-withText-8255da7cf6cf79edaa69c50d390668f0.svg"
   width="63"
   height="30"
   inkscape:version="0.92.3 (2405546, 2018-03-11)"><metadata
   id="metadata357"><rdf:RDF><cc:Work
       rdf:about=""><dc:format>image/svg+xml</dc:format><dc:type
         rdf:resource="http://purl.org/dc/dcmitype/StillImage" /><dc:title></dc:title></cc:Work></rdf:RDF></metadata><defs
   id="defs355">

		<linearGradient
   gradientTransform="matrix(1,0,0,-1,0,32)"
   y2="29.545"
   x2="13.3484"
   y1="-9.6707001"
   x1="-0.61049998"
   gradientUnits="userSpaceOnUse"
   id="SVGID_1_">
		<stop
   id="stop268"
   style="stop-color:#00D5FF"
   offset="0.177" />
		<stop
   id="stop270"
   style="stop-color:#06C1F4"
   offset="0.3061" />
		<stop
   id="stop272"
   style="stop-color:#148BD7"
   offset="0.5718" />
		<stop
   id="stop274"
   style="stop-color:#1A4CAE"
   offset="0.9012" />
	</linearGradient>
	
	

		<linearGradient
   gradientTransform="matrix(1,0,0,-1,0,32)"
   y2="-5.3587999"
   x2="-9.1721001"
   y1="18.0825"
   x1="22.8957"
   gradientUnits="userSpaceOnUse"
   id="SVGID_2_">
		<stop
   id="stop281"
   style="stop-color:#00D5FF"
   offset="0.3803" />
		<stop
   id="stop283"
   style="stop-color:#02CFFD"
   offset="0.4684" />
		<stop
   id="stop285"
   style="stop-color:#08BDF6"
   offset="0.5906" />
		<stop
   id="stop287"
   style="stop-color:#129FEB"
   offset="0.7327" />
		<stop
   id="stop289"
   style="stop-color:#2077DC"
   offset="0.8885" />
		<stop
   id="stop291"
   style="stop-color:#2B55CF"
   offset="1" />
	</linearGradient>
	
	

		<radialGradient
   gradientUnits="userSpaceOnUse"
   gradientTransform="matrix(78.3897,0,0,-78.3942,13795.469,32007.107)"
   r="0.09751448"
   cy="408.1748"
   cx="-175.5284"
   id="SVGID_3_">
		<stop
   id="stop298"
   style="stop-color:#FFD215"
   offset="0" />
		<stop
   id="stop300"
   style="stop-color:#FF9B00"
   offset="1" />
	</radialGradient>
	
	

		<linearGradient
   gradientTransform="matrix(1,0,0,-1,0,32)"
   y2="4.8491001"
   x2="48.022099"
   y1="4.8329"
   x1="57.382198"
   gradientUnits="userSpaceOnUse"
   id="SVGID_4_">
		<stop
   id="stop307"
   style="stop-color:#2B55CF"
   offset="0" />
		<stop
   id="stop309"
   style="stop-color:#1A4CAE"
   offset="1" />
	</linearGradient>
	
	
	
	
	
	
	
	
	
	
	
	
	
	
	
	
	
	
	
</defs><sodipodi:namedview
   pagecolor="#ffffff"
   bordercolor="#666666"
   borderopacity="1"
   objecttolerance="10"
   gridtolerance="10"
   guidetolerance="10"
   inkscape:pageopacity="0"
   inkscape:pageshadow="2"
   inkscape:window-width="956"
   inkscape:window-height="1042"
   id="namedview353"
   showgrid="false"
   inkscape:zoom="3.0227273"
   inkscape:cx="21.475208"
   inkscape:cy="15"
   inkscape:window-x="960"
   inkscape:window-y="18"
   inkscape:window-maximized="0"
   inkscape:current-layer="Layer_1" />
<style
   type="text/css"
   id="style266">
	.st0{fill:url(#SVGID_1_);}
	.st1{fill:#265ED4;}
	.st2{fill:url(#SVGID_2_);}
	.st3{fill:url(#SVGID_3_);}
	.st4{fill:url(#SVGID_4_);}
</style>
<path
   inkscape:connector-curvature="0"
   style="fill:url(#SVGID_1_)"
   id="path277"
   d="M 17.2,0.3 H 11.5 L 0,30 h 5.4 c 0.6,0 1,-0.2 1.4,-0.5 0.4,-0.3 0.7,-0.6 0.8,-1 L 13.9,10.6 C 14.1,10.1 14.3,9.5 14.6,8.8 14.8,8 17.2,0.3 17.2,0.3 Z"
   class="st0" /><path
   style="fill:#265ed4"
   inkscape:connector-curvature="0"
   id="path279"
   d="M 32.4,12.6 V 30 h 6.9 V 8.9 C 38,9 36.7,9.1 35.6,9.2 h -0.3 c -0.8,0.1 -1.6,0.5 -2.1,1.1 -0.5,0.7 -0.8,1.5 -0.8,2.3 z"
   class="st1" /><path
   inkscape:connector-curvature="0"
   style="fill:url(#SVGID_2_)"
   id="path294"
   d="m 30,10.1 c -0.4,0 -0.8,0 -1.6,0.2 C 16.6,13 5.5,20.8 0,30 h 5.9 c 0.7,0 1.4,-0.2 1.7,-0.8 7.2,-10.3 16.7,-15.9 21,-18.1 1.3,-0.6 1.3,-0.9 1.4,-1 z"
   class="st2" /><path
   style="fill:#265ed4"
   inkscape:connector-curvature="0"
   id="path296"
   d="m 17.5,0.3 h -6 c 0,0 1.2,0.4 1.7,1.5 l 9.2,26.7 c 0.2,0.4 0.5,0.8 0.8,1.1 0.4,0.3 0.8,0.4 1.4,0.4 H 30 L 18.9,1.3 C 18.8,1 18.6,0.8 18.3,0.6 18.1,0.4 17.8,0.3 17.5,0.3 Z"
   class="st1" /><path
   inkscape:connector-curvature="0"
   style="fill:url(#SVGID_3_)"
   id="path303"
   d="M 39.3,8.9 V 0.3 h -6.9 v 8.5 c 0,0.1 0,0.2 0.1,0.3 0,0.1 0.1,0.2 0.2,0.2 0.1,0.1 0.2,0.1 0.3,0.1 0.1,0 0.2,0 0.3,0 1.9,-0.2 4.3,-0.4 6,-0.5 z"
   class="st3" /><path
   style="fill:#265ed4"
   inkscape:connector-curvature="0"
   id="path305"
   d="M 51.4,25 V 24.8 L 57,19.1 c 0.8,-0.8 1.5,-1.6 2.2,-2.4 0.7,-0.8 1.3,-1.6 1.8,-2.4 0.5,-0.8 0.9,-1.7 1.3,-2.6 0.3,-1 0.5,-2 0.5,-3 C 62.8,7.4 62.6,6.3 62.1,5.2 61.7,4.2 61,3.2 60.2,2.5 59.4,1.7 58.4,1.1 57.2,0.7 56,0.2 54.7,0 53.2,0 51.9,0 50.6,0.2 49.4,0.5 48.2,0.8 47.2,1.4 46.2,2.2 45.3,3 44.5,3.9 43.9,4.9 43.3,6 42.9,7.2 42.7,8.6 43.8,8.5 45.6,8.5 47,8.5 c 1,0 1.9,-0.6 2.4,-1.5 0,0 0,0 0,0 0.3,-0.4 0.6,-0.8 1,-1.1 0.6,-0.5 1.4,-0.7 2.4,-0.7 1.2,0 2,0.3 2.6,0.9 0.6,0.6 0.8,1.5 0.8,2.7 0,0.7 -0.1,1.4 -0.3,2 -0.2,0.7 -0.5,1.3 -0.8,1.9 -0.4,0.7 -0.8,1.4 -1.3,2 -0.6,0.7 -1.2,1.4 -1.9,2.1 l -8.6,8.6 c -0.4,0.3 -0.7,0.7 -0.9,1.2 -0.2,0.4 -0.2,0.8 -0.2,1.3 v 2 H 48 Z"
   class="st1" /><path
   inkscape:connector-curvature="0"
   style="fill:url(#SVGID_4_)"
   id="path312"
   d="m 62.5,24.9 c -0.4,-0.4 -0.9,-0.6 -1.6,-0.6 h -1.2 c 0,0 0,0 0,0 h -4.3 c 0,0 -0.1,0 -0.1,0 -0.2,0 -0.4,0 -0.6,0 -0.5,0 -0.9,0.1 -1.4,0.2 -0.1,0 -0.1,0 -0.2,0 -0.3,0 -0.6,0.1 -0.8,0.1 -0.5,0.1 -1,0.1 -1,0.1 -1,1 -2.2,2.2 -2.9,2.9 -0.4,0.4 -0.6,1 -0.6,1.5 V 30 H 63 v -3.7 c 0.1,-0.6 -0.1,-1.1 -0.5,-1.4 z"
   class="st4" />
</svg>